<svg width="97" height="30" fill="none" xmlns="http://www.w3.org/2000/svg"><path d="M55.392 29.993c-1.19 0-2.262-.245-3.215-.736a5.639 5.639 0 01-2.206-2.08c-.533-.883-.799-1.884-.799-3.005s.266-2.123.799-3.005a5.49 5.49 0 012.206-2.06c.953-.504 2.025-.756 3.215-.756 1.191 0 2.256.252 3.194.756a5.49 5.49 0 012.207 2.06c.532.882.799 1.884.799 3.005 0 1.12-.267 2.122-.799 3.005a5.639 5.639 0 01-2.206 2.08c-.94.49-2.004.736-3.195.736zm0-2.69c.84 0 1.527-.28 2.06-.84.546-.575.82-1.338.82-2.291 0-.953-.274-1.71-.82-2.27-.533-.574-1.22-.861-2.06-.861-.84 0-1.534.287-2.08.861-.546.56-.82 1.317-.82 2.27 0 .953.274 1.716.82 2.29.546.56 1.24.841 2.08.841zm22.87-8.953c1.415 0 2.535.421 3.362 1.262.84.826 1.26 2.073 1.26 3.74v6.473h-3.277v-5.968c0-.897-.19-1.563-.568-1.997-.364-.448-.89-.672-1.576-.672-.77 0-1.38.252-1.828.756-.448.49-.672 1.226-.672 2.207v5.674h-3.279v-5.968c0-1.78-.714-2.67-2.143-2.67-.757 0-1.36.253-1.807.757-.449.49-.673 1.226-.673 2.207v5.674h-3.278V18.519h3.13v1.303c.421-.476.933-.84 1.535-1.093a5.277 5.277 0 012.017-.378c.799 0 1.52.16 2.165.483a3.758 3.758 0 011.555 1.366 4.656 4.656 0 011.744-1.366 5.606 5.606 0 012.333-.483zm13.379 9.016c.589 0 1.107-.084 1.555-.252.463-.182.89-.463 1.282-.84l1.744 1.89c-1.064 1.22-2.62 1.829-4.665 1.829-1.275 0-2.402-.245-3.383-.736-.98-.504-1.737-1.198-2.27-2.08-.532-.883-.798-1.884-.798-3.005 0-1.107.259-2.102.777-2.984a5.517 5.517 0 012.165-2.08c.924-.505 1.961-.757 3.11-.757 1.079 0 2.06.231 2.942.693a5.093 5.093 0 012.101 1.976c.533.854.799 1.87.799 3.047l-8.364 1.618c.238.56.61.98 1.114 1.26.518.28 1.149.421 1.891.421zm-.483-6.535c-.827 0-1.5.266-2.017.798-.519.532-.792 1.268-.82 2.207l5.506-1.072a2.47 2.47 0 00-.946-1.408c-.476-.35-1.05-.526-1.723-.526z" fill="#06A9B3"/><path fill-rule="evenodd" clip-rule="evenodd" d="M46.764 10.108v19.716H43.36v-6.03h-6.585v6.03h-3.502V10.246l-19.796 3.959-.687-3.434 21.844-4.369a1.751 1.751 0 012.142 1.72v12.792h6.584V0h3.404v6.55l38.475 6.84-.613 3.449-37.862-6.731z" fill="#06A9B3"/><path d="M6.746 14.869c1.359 0 2.542.266 3.551.798 1.009.533 1.793 1.317 2.354 2.354.56 1.037.84 2.29.84 3.762v8.048h-3.404v-3.53H3.362v3.53H0v-8.048c0-1.471.28-2.725.84-3.762.561-1.037 1.346-1.821 2.354-2.354 1.009-.532 2.193-.798 3.552-.798zm3.34 8.7v-2.102c0-1.218-.3-2.136-.903-2.752-.602-.63-1.422-.946-2.458-.946-1.051 0-1.878.315-2.48.946-.589.616-.883 1.534-.883 2.752v2.102h6.725zM20.676 30c-1.275 0-2.27-.337-2.984-1.01-.715-.686-1.072-1.653-1.072-2.9V15h3.278v10.9c0 .477.12.848.358 1.114.252.252.602.378 1.05.378.169 0 .337-.02.505-.063.182-.042.322-.09.42-.147l.147 2.543a5.348 5.348 0 01-1.702.273zm10.12-.715c-.322.238-.721.42-1.198.546a6.133 6.133 0 01-1.45.168c-1.358 0-2.402-.343-3.13-1.03-.73-.686-1.094-1.695-1.094-3.026v-9.918h3.279v2.753h2.795v2.521h-2.795v4.602c0 .477.119.848.357 1.114.238.252.581.378 1.03.378.504 0 .952-.14 1.345-.42l.861 2.312z" fill="#06A9B3"/></svg>